<svg width="24" height="24" viewBox="0 0 24 24" fill="none" xmlns="http://www.w3.org/2000/svg">
  <path d="M12 2C6.48 2 2 6.48 2 12C2 17.52 6.48 22 12 22C17.52 22 22 17.52 22 12C22 6.48 17.52 2 12 2ZM12 20C7.59 20 4 16.41 4 12C4 7.59 7.59 4 12 4C16.41 4 20 7.59 20 12C20 16.41 16.41 20 12 20Z" fill="#0077B5"/>
  <path d="M15 8.5H13.5V7.5C13.5 7.1 13.1 6.5 12 6.5H9C7.9 6.5 7.5 7.1 7.5 7.5V16.5H9V12.5H12V13.5C12 13.9 12.4 14.5 13.5 14.5H15C16.1 14.5 16.5 13.9 16.5 13.5V9.5C16.5 9.1 16.1 8.5 15 8.5Z" fill="#0077B5"/>
</svg>
