<svg width="24" height="24" viewBox="0 0 24 24" fill="none" xmlns="http://www.w3.org/2000/svg">
  <path d="M22.2819 9.8211C22.5698 8.9303 22.5698 8.0395 22.2819 7.1487C21.6105 5.0764 19.9582 3.4241 17.8859 2.7527C16.9952 2.4648 16.1044 2.4648 15.2136 2.7527C14.3229 2.4648 13.4321 2.4648 12.5413 2.7527C10.469 3.4241 8.8167 5.0764 8.1453 7.1487C7.8574 8.0395 7.8574 8.9303 8.1453 9.8211C7.8574 10.7118 7.8574 11.6026 8.1453 12.4934C8.8167 14.5657 10.469 16.218 12.5413 16.8894C13.4321 17.1773 14.3229 17.1773 15.2136 16.8894C16.1044 17.1773 16.9952 17.1773 17.8859 16.8894C19.9582 16.218 21.6105 14.5657 22.2819 12.4934C22.5698 11.6026 22.5698 10.7118 22.2819 9.8211ZM17.8859 15.4108C16.3873 15.9285 14.7638 15.4108 13.7193 14.3664C13.5752 14.2223 13.4321 14.0781 13.2879 13.934C14.0449 13.1769 14.5626 12.2006 14.5626 11.0842C14.5626 9.9677 14.0449 8.9915 13.2879 8.2344C13.4321 8.0902 13.5752 7.9461 13.7193 7.802C14.7638 6.7575 16.3873 6.2398 17.8859 6.7575C19.5382 7.2752 20.7403 8.9303 20.7403 10.7118C20.7403 12.4934 19.5382 14.1485 17.8859 14.6662V15.4108ZM12.5413 14.6662C11.2248 14.6662 10.1803 13.6217 10.1803 12.3052C10.1803 10.9887 11.2248 9.9442 12.5413 9.9442C13.8578 9.9442 14.9023 10.9887 14.9023 12.3052C14.9023 13.6217 13.8578 14.6662 12.5413 14.6662ZM9.6276 7.802C9.7717 7.9461 9.9159 8.0902 10.0601 8.2344C9.303 8.9915 8.7853 9.9677 8.7853 11.0842C8.7853 12.2006 9.303 13.1769 10.0601 13.934C9.9159 14.0781 9.7717 14.2223 9.6276 14.3664C8.5831 15.4108 6.9596 15.9285 5.461 15.4108C3.8087 14.8931 2.6066 13.238 2.6066 11.4565C2.6066 9.6749 3.8087 8.0198 5.461 7.5021C6.9596 6.9844 8.5831 7.5021 9.6276 8.5466V7.802ZM12.5413 9.6063C11.0427 9.6063 9.8406 10.8084 9.8406 12.307C9.8406 13.8056 11.0427 15.0077 12.5413 15.0077C14.0399 15.0077 15.242 13.8056 15.242 12.307C15.242 10.8084 14.0399 9.6063 12.5413 9.6063ZM10.0601 7.802C9.9159 7.6578 9.7717 7.5137 9.6276 7.3696C8.5831 6.3251 6.9596 5.8074 5.461 6.3251C3.8087 6.8428 2.6066 8.4979 2.6066 10.2794C2.6066 12.061 3.8087 13.7161 5.461 14.2338C6.9596 14.7515 8.5831 14.2338 9.6276 13.1893C9.7717 13.0452 9.9159 12.9011 10.0601 12.7569C10.8171 13.514 11.7934 14.0317 12.9098 14.0317C14.0263 14.0317 15.0025 13.514 15.7596 12.7569C15.9037 12.9011 16.0479 13.0452 16.192 13.1893C17.2365 14.2338 18.86 14.7515 20.3586 14.2338C22.0109 13.7161 23.213 12.061 23.213 10.2794C23.213 8.4979 22.0109 6.8428 20.3586 6.3251C18.86 5.8074 17.2365 6.3251 16.192 7.3696C16.0479 7.5137 15.9037 7.6578 15.7596 7.802C15.0025 7.0449 14.0263 6.5272 12.9098 6.5272C11.7934 6.5272 10.8171 7.0449 10.0601 7.802Z" fill="white"/>
</svg>
